<?xml version="1.0" encoding="UTF-8"?>
<svg xmlns="http://www.w3.org/2000/svg" width="130" height="63" viewBox="0 0 130 63" fill="none">
  <path d="M20.5955 40.3548H37.8315L29.3596 20.1774L20.5955 40.3548ZM125.764 4.20968H4.23596V58.7903H125.764V4.20968ZM119.775 34.9839C119.775 46.7419 108.966 53.8548 99.764 53.4194C93.4831 53.129 87.7865 50.371 83.8427 46.1613L85.1573 53.4194H80.3371L75.2247 25.5484L61.3483 53.4194L48.0562 25.2581L44.4045 43.9839L48.4944 53.2742H43.382L42.9438 52.1129L39.7303 44.4194H18.8427L15.0449 53.2742H10.0787L29.6517 9.58064L41.191 36.4355L46.3034 9.58064L61.3483 43.5484L76.9775 9.58064L79.6067 23.8065C82.8202 15.9677 90.4157 10.3065 99.1798 10.0161C106.483 9.72581 113.202 12.629 117.73 19.1613L114.517 22.2097L113.787 21.4839C109.697 16.6936 105.169 14.2258 99.3258 14.371C89.9775 14.6613 82.6742 22.5 82.6742 31.7903C82.6742 41.0806 90.1236 48.7742 99.618 49.0645C104.876 49.0645 114.225 44.7097 114.517 37.4516V35.8548H102.101V31.7903H119.775V34.8387V34.9839ZM0 0V63H130V0H0ZM129.124 61.9839H0.876405V0.870968H129.124V61.9839Z" fill="#2273BA"></path>
</svg>
